#N canvas 379 54 462 803 12;
#X obj 231 76 inlet;
#X obj 231 122 sel 0;
#X msg 174 274 stop;
#X obj 174 428 delay;
#X obj 263 191 t b b b;
#X obj 264 690 line~;
#X obj 264 746 outlet~;
#X obj 393 425 0;
#X obj 34 542 pack 0 0;
#X obj 87 518 nbx 5 14 0 10000 0 1 empty empty Release 0 -8 0 10 #c6ffc7
#000000 #000000 1116 256;
#X obj 324 425 pack 1 0;
#X obj 238 316 nbx 5 14 0 5000 0 1 empty empty Attack 0 -8 0 10 #c6ffc7
#000000 #000000 49 256;
#X obj 206 391 + 1;
#X obj 174 565 pack 0 0 0;
#X obj 174 598 route 0;
#X obj 207 469 nbx 5 14 0 100 0 1 empty empty Sustain 0 -8 0 10 #c6ffc7
#000000 #000000 100 256;
#X obj 241 540 nbx 5 14 0 5000 0 1 empty empty Decay 0 -8 0 10 #c6ffc7
#000000 #000000 0 256;
#X obj 207 500 * 0.01;
#X connect 0 0 1 0;
#X connect 1 0 2 0;
#X connect 1 0 8 0;
#X connect 1 1 4 0;
#X connect 2 0 3 0;
#X connect 3 0 13 0;
#X connect 4 0 3 0;
#X connect 4 1 10 0;
#X connect 4 2 7 0;
#X connect 5 0 6 0;
#X connect 7 0 5 0;
#X connect 8 0 5 0;
#X connect 9 0 8 1;
#X connect 10 0 5 0;
#X connect 11 0 10 1;
#X connect 11 0 12 0;
#X connect 12 0 3 1;
#X connect 13 0 14 0;
#X connect 14 0 5 0;
#X connect 15 0 17 0;
#X connect 16 0 13 2;
#X connect 17 0 13 1;
