#N canvas 141 74 581 629 12;
#X obj 77 454 dac~;
#X obj 76 10 notein;
#X obj 76 105 poly 4 1;
#X obj 76 171 pack 0 0 0;
#X obj 76 60 mtof;
#X obj 115 59 / 127;
#X obj 218 228 pack f f f f;
#X text 274 247 ADSR;
#X obj 76 374 *~ 0.8;
#X obj 197 41 ctlin 13;
#X obj 274 37 ctlin 14;
#X obj 340 37 ctlin 15;
#X obj 428 36 ctlin 16;
#X obj 340 62 * 0.787402;
#X obj 274 62 * 10;
#X obj 349 297 print;
#X obj 274 108 t b f;
#X obj 340 108 t b f;
#X obj 428 109 t b f;
#X obj 428 61 pow 2;
#X obj 197 66 pow 2;
#X obj 76 306 clone synth 4;
#X obj 76 138 - 1;
#X connect 1 0 4 0;
#X connect 1 1 5 0;
#X connect 2 0 22 0;
#X connect 2 1 3 1;
#X connect 2 2 3 2;
#X connect 3 0 21 0;
#X connect 4 0 2 0;
#X connect 5 0 2 1;
#X connect 6 0 15 0;
#X connect 6 0 21 1;
#X connect 8 0 0 0;
#X connect 8 0 0 1;
#X connect 9 0 20 0;
#X connect 10 0 14 0;
#X connect 11 0 13 0;
#X connect 12 0 19 0;
#X connect 13 0 17 0;
#X connect 14 0 16 0;
#X connect 16 0 6 0;
#X connect 16 1 6 1;
#X connect 17 0 6 0;
#X connect 17 1 6 2;
#X connect 18 0 6 0;
#X connect 18 1 6 3;
#X connect 19 0 18 0;
#X connect 20 0 6 0;
#X connect 21 0 8 0;
#X connect 22 0 3 0;
