#N canvas 141 74 581 629 12;
#X obj 188 572 dac~;
#X obj 76 10 notein;
#X obj 76 105 poly 4 1;
#X obj 76 171 pack 0 0 0;
#X obj 76 226 route 1 2 3 4;
#X obj 76 60 mtof;
#X obj 115 59 / 127;
#X obj 73 365 synth;
#X obj 143 365 synth;
#X obj 213 366 synth;
#X obj 285 366 synth;
#X obj 218 228 pack f f f f;
#X text 274 247 ADSR;
#X obj 187 492 *~ 0.8;
#X obj 197 41 ctlin 13;
#X obj 274 37 ctlin 14;
#X obj 340 37 ctlin 15;
#X obj 428 36 ctlin 16;
#X obj 340 62 * 0.787402;
#X obj 274 62 * 10;
#X obj 349 297 print;
#X obj 274 108 t b f;
#X obj 340 108 t b f;
#X obj 428 109 t b f;
#X obj 428 61 pow 2;
#X obj 197 66 pow 2;
#X connect 1 0 5 0;
#X connect 1 1 6 0;
#X connect 2 0 3 0;
#X connect 2 1 3 1;
#X connect 2 2 3 2;
#X connect 3 0 4 0;
#X connect 4 0 7 0;
#X connect 4 1 8 0;
#X connect 4 2 9 0;
#X connect 4 3 10 0;
#X connect 5 0 2 0;
#X connect 6 0 2 1;
#X connect 7 0 13 0;
#X connect 8 0 13 0;
#X connect 9 0 13 0;
#X connect 10 0 13 0;
#X connect 11 0 10 1;
#X connect 11 0 9 1;
#X connect 11 0 8 1;
#X connect 11 0 7 1;
#X connect 11 0 20 0;
#X connect 13 0 0 0;
#X connect 13 0 0 1;
#X connect 14 0 25 0;
#X connect 15 0 19 0;
#X connect 16 0 18 0;
#X connect 17 0 24 0;
#X connect 18 0 22 0;
#X connect 19 0 21 0;
#X connect 21 0 11 0;
#X connect 21 1 11 1;
#X connect 22 0 11 0;
#X connect 22 1 11 2;
#X connect 23 0 11 0;
#X connect 23 1 11 3;
#X connect 24 0 23 0;
#X connect 25 0 11 0;
