#N canvas 201 229 516 378 12;
#X obj 102 56 osc~ 440;
#X obj 172 228 *~ 0.2;
#X obj 161 312 dac~;
#X obj 186 171 *~;
#X obj 297 28 phasor~ 1;
#X obj 223 137 +~ 1;
#X obj 252 91 *~ -1;
#X connect 0 0 3 0;
#X connect 1 0 2 0;
#X connect 1 0 2 1;
#X connect 3 0 1 0;
#X connect 4 0 6 0;
#X connect 5 0 3 1;
#X connect 6 0 5 0;
