#N canvas 317 133 590 738 12;
#X obj 81 593 *~ 0.2;
#X obj 81 632 dac~;
#X obj 81 495 *~;
#X obj 82 408 osc~;
#X obj 76 28 notein;
#X obj 80 363 mtof;
#X obj 115 453 / 127, f 6;
#X obj 76 105 poly 4 1;
#X obj 76 171 pack 0 0 0;
#X obj 81 324 unpack 0 0;
#X obj 76 226 route 1 2 3 4;
#X obj 177 494 *~;
#X obj 178 407 osc~;
#X obj 176 362 mtof;
#X obj 211 452 / 127, f 6;
#X obj 177 323 unpack 0 0;
#X obj 281 493 *~;
#X obj 282 406 osc~;
#X obj 280 361 mtof;
#X obj 315 451 / 127, f 6;
#X obj 281 322 unpack 0 0;
#X obj 390 491 *~;
#X obj 391 404 osc~;
#X obj 389 359 mtof;
#X obj 424 449 / 127, f 6;
#X obj 390 320 unpack 0 0;
#X connect 0 0 1 0;
#X connect 0 0 1 1;
#X connect 2 0 0 0;
#X connect 3 0 2 0;
#X connect 4 0 7 0;
#X connect 4 1 7 1;
#X connect 5 0 3 0;
#X connect 6 0 2 1;
#X connect 7 0 8 0;
#X connect 7 1 8 1;
#X connect 7 2 8 2;
#X connect 8 0 10 0;
#X connect 9 0 5 0;
#X connect 9 1 6 0;
#X connect 10 0 9 0;
#X connect 10 1 15 0;
#X connect 10 2 20 0;
#X connect 10 3 25 0;
#X connect 11 0 0 0;
#X connect 12 0 11 0;
#X connect 13 0 12 0;
#X connect 14 0 11 1;
#X connect 15 0 13 0;
#X connect 15 1 14 0;
#X connect 16 0 0 0;
#X connect 17 0 16 0;
#X connect 18 0 17 0;
#X connect 19 0 16 1;
#X connect 20 0 18 0;
#X connect 20 1 19 0;
#X connect 21 0 0 0;
#X connect 22 0 21 0;
#X connect 23 0 22 0;
#X connect 24 0 21 1;
#X connect 25 0 23 0;
#X connect 25 1 24 0;
