#N canvas 135 107 397 677 12;
#X obj 187 492 *~ 0.2;
#X obj 190 563 dac~;
#X obj 76 10 notein;
#X obj 76 105 poly 4 1;
#X obj 76 171 pack 0 0 0;
#X obj 76 226 route 1 2 3 4;
#X obj 76 60 mtof;
#X obj 115 59 / 127;
#X obj 73 365 synth;
#X obj 143 365 synth;
#X obj 213 366 synth;
#X obj 285 366 synth;
#X obj 70 629 vcf~;
#X connect 0 0 1 0;
#X connect 0 0 1 1;
#X connect 2 0 6 0;
#X connect 2 1 7 0;
#X connect 3 0 4 0;
#X connect 3 1 4 1;
#X connect 3 2 4 2;
#X connect 4 0 5 0;
#X connect 5 0 8 0;
#X connect 5 1 9 0;
#X connect 5 2 10 0;
#X connect 5 3 11 0;
#X connect 6 0 3 0;
#X connect 7 0 3 1;
#X connect 8 0 0 0;
#X connect 9 0 0 0;
#X connect 10 0 0 0;
#X connect 11 0 0 0;
